:FULLY-SPECIFIED
:FORCE-ALL-JOINTS-BE-3DOF
:DEGREES
476
root 3.68346 16.2913 -7.07284 6.01861 60.9097 -6.06152
lfemur -39.5895 -0.266325 -22.1091
ltibia 49.4516 0 0
lfoot -20.9009 -2.31512 0
ltoes 16.593 0 0
rfemur -27.1229 -1.12704 11.3122
rtibia 68.779 0 0
rfoot 20.6164 -1.32837 0
rtoes -27.1812 0 0
lowerback 2.00329 -0.208764 1.85966
upperback -0.457115 -0.240062 1.0861
thorax -1.5849 -0.126844 0.0869658
lowerneck -8.39179 -6.69257 0.600036
upperneck 4.10666 -9.09105 1.43395
head 2.83679 -4.45377 -0.10784
lclavicle -1.81893e-14 -1.07144e-14 0
lhumerus -48.4315 -27.8095 108.892
lradius 54.7978 0 0
lwrist 3.70572 0 0
lhand -8.14105 -5.12869 0
lfingers 7.12502 0 0
lthumb 17.7519 23.7591 0
rclavicle -1.81893e-14 -1.07144e-14 0
rhumerus -52.205 4.73407 -86.6754
rradius 64.1708 0 0
rwrist 17.0118 0 0
rhand -26.331 -26.0999 0
rfingers 7.12502 0 0
rthumb 0.226111 -776.052 0
477
root 3.7929 16.3221 -7.00933 6.21141 62.6108 -5.37199
lfemur -38.3667 -2.01288 -22.4118
ltibia 48.7507 0 0
lfoot -20.9559 -2.28996 0
ltoes 16.9861 0 0
rfemur -29.5687 -0.980065 11.0978
rtibia 71.6909 0 0
rfoot 20.2191 -0.0503185 0
rtoes -25.1909 0 0
lowerback 2.16587 -0.246409 1.51053
upperback -0.422443 -0.294952 0.970316
thorax -1.64106 -0.152498 0.165242
lowerneck -8.41636 -6.91726 0.403669
upperneck 4.23092 -9.37826 1.5201
head 2.89634 -4.59462 -0.0659877
lclavicle -1.4359e-14 -9.67049e-15 0
lhumerus -48.5968 -28.1905 109.231
lradius 55.102 0 0
lwrist 3.95484 0 0
lhand -6.60028 -4.38114 0
lfingers 7.12502 0 0
lthumb 19.2359 24.4021 0
rclavicle -1.4359e-14 -9.67049e-15 0
rhumerus -51.9247 5.52383 -87.2731
rradius 64.3754 0 0
rwrist 17.644 0 0
rhand -25.8368 -25.73 0
rfingers 7.12502 0 0
rthumb 0.703445 -775.685 0
478
root 3.89477 16.3507 -6.9502 6.39087 64.1943 -4.73016
lfemur -37.2285 -3.63859 -22.6936
ltibia 48.0982 0 0
lfoot -21.007 -2.26654 0
ltoes 17.352 0 0
rfemur -31.8454 -0.843255 10.8982
rtibia 74.4013 0 0
rfoot 19.8493 1.1393 0
rtoes -23.3384 0 0
lowerback 2.3172 -0.281449 1.18556
upperback -0.39017 -0.346045 0.86254
thorax -1.69334 -0.176376 0.238102
lowerneck -8.43924 -7.1264 0.220888
upperneck 4.34658 -9.64559 1.60029
head 2.95176 -4.72574 -0.027031
lclavicle -1.07937e-14 -8.69877e-15 0
lhumerus -48.7506 -28.5451 109.546
lradius 55.3853 0 0
lwrist 4.18672 0 0
lhand -5.16612 -3.68533 0
lfingers 7.12502 0 0
lthumb 20.6172 25.0005 0
rclavicle -1.07937e-14 -8.69877e-15 0
rhumerus -51.6638 6.25894 -87.8295
rradius 64.5659 0 0
rwrist 18.2324 0 0
rhand -25.3767 -25.3857 0
rfingers 7.12502 0 0
rthumb 1.14775 -775.343 0
479
root 3.9869 16.3766 -6.89673 6.55318 65.6264 -4.14967
lfemur -36.1991 -5.10892 -22.9484
ltibia 47.5081 0 0
lfoot -21.0533 -2.24536 0
ltoes 17.6829 0 0
rfemur -33.9044 -0.719521 10.7178
rtibia 76.8526 0 0
rfoot 19.5149 2.21522 0
rtoes -21.6629 0 0
lowerback 2.45406 -0.31314 0.891646
upperback -0.360982 -0.392254 0.765066
thorax -1.74063 -0.197972 0.303999
lowerneck -8.45992 -7.31555 0.0555776
upperneck 4.45118 -9.88737 1.67282
head 3.00189 -4.84432 0.0082025
lclavicle -7.56911e-15 -7.81993e-15 0
lhumerus -48.8897 -28.8658 109.831
lradius 55.6414 0 0
lwrist 4.39644 0 0
lhand -3.86903 -3.05601 0
lfingers 7.12502 0 0
lthumb 21.8665 25.5418 0
rclavicle -7.56911e-15 -7.81993e-15 0
rhumerus -51.4278 6.92378 -88.3328
rradius 64.7382 0 0
rwrist 18.7646 0 0
rhand -24.9607 -25.0744 0
rfingers 7.12502 0 0
rthumb 1.54959 -775.033 0
